<svg xmlns="http://www.w3.org/2000/svg" xmlns:xlink="http://www.w3.org/1999/xlink" width="300" zoomAndPan="magnify" viewBox="0 0 224.87999 67.499998" height="90" preserveAspectRatio="xMidYMid meet" version="1.0"><defs><g/><clipPath id="d0730b2603"><path d="M 0.765625 0 L 223.992188 0 L 223.992188 67.003906 L 0.765625 67.003906 Z M 0.765625 0 " clip-rule="nonzero"/></clipPath></defs><g clip-path="url(#d0730b2603)"><path fill="#ffffff" d="M 0.765625 0 L 224.113281 0 L 224.113281 74.449219 L 0.765625 74.449219 Z M 0.765625 0 " fill-opacity="1" fill-rule="nonzero"/><path fill="#ffffff" d="M 0.765625 0 L 224.113281 0 L 224.113281 67.003906 L 0.765625 67.003906 Z M 0.765625 0 " fill-opacity="1" fill-rule="nonzero"/><path fill="#ffffff" d="M 0.765625 0 L 224.113281 0 L 224.113281 67.003906 L 0.765625 67.003906 Z M 0.765625 0 " fill-opacity="1" fill-rule="nonzero"/></g><g fill="#000000" fill-opacity="1"><g transform="translate(31.952738, 50.179312)"><g><path d="M 44.5625 0 L 42.21875 -29.375 L 41.921875 -29.375 L 31.765625 -0.296875 L 25.046875 -0.296875 L 14.890625 -29.375 L 14.59375 -29.375 L 12.25 0 L 0.96875 0 L 5.40625 -49.546875 L 17.421875 -49.546875 L 28.40625 -20.96875 L 39.40625 -49.546875 L 51.40625 -49.546875 L 55.859375 0 Z M 44.5625 0 "/></g></g></g><g fill="#000000" fill-opacity="1"><g transform="translate(88.774751, 50.179312)"><g><path d="M 34.78125 -13.9375 L 12.4375 -13.9375 C 12.4375 -11.769531 13.132812 -10.164062 14.53125 -9.125 C 15.9375 -8.082031 17.457031 -7.5625 19.09375 -7.5625 C 20.820312 -7.5625 22.1875 -7.789062 23.1875 -8.25 C 24.1875 -8.71875 25.328125 -9.628906 26.609375 -10.984375 L 34.296875 -7.140625 C 31.085938 -1.773438 25.757812 0.90625 18.3125 0.90625 C 13.675781 0.90625 9.691406 -0.6875 6.359375 -3.875 C 3.035156 -7.0625 1.375 -10.894531 1.375 -15.375 C 1.375 -19.863281 3.035156 -23.707031 6.359375 -26.90625 C 9.691406 -30.113281 13.675781 -31.71875 18.3125 -31.71875 C 23.195312 -31.71875 27.171875 -30.304688 30.234375 -27.484375 C 33.304688 -24.660156 34.84375 -20.625 34.84375 -15.375 C 34.84375 -14.65625 34.820312 -14.175781 34.78125 -13.9375 Z M 12.734375 -19.828125 L 24.453125 -19.828125 C 24.203125 -21.421875 23.566406 -22.648438 22.546875 -23.515625 C 21.523438 -24.378906 20.21875 -24.8125 18.625 -24.8125 C 16.863281 -24.8125 15.460938 -24.347656 14.421875 -23.421875 C 13.378906 -22.503906 12.816406 -21.304688 12.734375 -19.828125 Z M 12.734375 -19.828125 "/></g></g></g><g fill="#000000" fill-opacity="1"><g transform="translate(124.994282, 50.179312)"><g><path d="M 3.609375 0 L 3.609375 -30.8125 L 14.234375 -30.8125 L 14.234375 -26.375 L 14.359375 -26.375 C 14.429688 -26.53125 14.554688 -26.726562 14.734375 -26.96875 C 14.921875 -27.207031 15.3125 -27.625 15.90625 -28.21875 C 16.507812 -28.820312 17.148438 -29.363281 17.828125 -29.84375 C 18.515625 -30.332031 19.398438 -30.765625 20.484375 -31.140625 C 21.566406 -31.523438 22.664062 -31.71875 23.78125 -31.71875 C 24.945312 -31.71875 26.085938 -31.554688 27.203125 -31.234375 C 28.328125 -30.910156 29.148438 -30.585938 29.671875 -30.265625 L 30.515625 -29.796875 L 26.0625 -20.78125 C 24.738281 -21.90625 22.898438 -22.46875 20.546875 -22.46875 C 19.265625 -22.46875 18.160156 -22.1875 17.234375 -21.625 C 16.316406 -21.0625 15.664062 -20.378906 15.28125 -19.578125 C 14.90625 -18.773438 14.632812 -18.09375 14.46875 -17.53125 C 14.3125 -16.976562 14.234375 -16.539062 14.234375 -16.21875 L 14.234375 0 Z M 3.609375 0 "/></g></g></g><g fill="#000000" fill-opacity="1"><g transform="translate(154.90693, 50.179312)"><g><path d="M 26.96875 -30.8125 L 39.21875 -30.8125 L 15.015625 15.609375 L 2.765625 15.609375 L 13.390625 -4.8125 L -1.203125 -30.8125 L 11.046875 -30.8125 L 19.640625 -15.015625 Z M 26.96875 -30.8125 "/></g></g></g></svg>